<?xml version="1.0" encoding="utf-8"?>
<!-- Generator: Adobe Illustrator 26.5.0, SVG Export Plug-In . SVG Version: 6.00 Build 0)  -->
<svg version="1.0"
	 id="intel_ARC_logo" xmlns:dc="http://purl.org/dc/elements/1.1/" xmlns:cc="http://creativecommons.org/ns#" xmlns:inkscape="http://www.inkscape.org/namespaces/inkscape" xmlns:rdf="http://www.w3.org/1999/02/22-rdf-syntax-ns#" xmlns:sodipodi="http://sodipodi.sourceforge.net/DTD/sodipodi-0.dtd" xmlns:svg="http://www.w3.org/2000/svg"
	 xmlns="http://www.w3.org/2000/svg" xmlns:xlink="http://www.w3.org/1999/xlink" x="0px" y="0px" viewBox="0 0 2417.67 1774.9"
	 style="enable-background:new 0 0 2417.67 1774.9;" xml:space="preserve">
<g>
	
		<sodipodi:namedview  bordercolor="#666666" borderopacity="1" gridtolerance="10" guidetolerance="10" id="namedview21" inkscape:current-layer="intel_ARC_logo" inkscape:cx="500.008" inkscape:cy="279.336" inkscape:pagecheckerboard="true" inkscape:pageopacity="0" inkscape:pageshadow="2" inkscape:window-height="1137" inkscape:window-maximized="1" inkscape:window-width="1920" inkscape:window-x="-8" inkscape:window-y="-8" inkscape:zoom="1.3390845" objecttolerance="10" pagecolor="#ffffff" showgrid="false">
		</sodipodi:namedview>
	<g id="ARC_lettering" transform="matrix(0.46147483,0,0,0.46147483,-2.768849,-10.789282)">
		<polygon id="polygon2" points="1183.69,2112.35 1442.49,2710.45 1037.99,2710.45 956.19,2903.95 1520.79,2908.25 1672.99,3245.35 
			1899.19,3245.35 1290.29,1855.75 1077.19,1855.75 468.29,3243.15 694.49,3243.15 		"/>
		<path id="path4" d="M2997.39,2690.85l313.1,550.2l-230.5,4.3l-302.3-537.1h-430.6v535h-213.1l-1.2-1387.4h664.1
			c152.5-6.5,470,54.4,472.2,424C3270.58,2516.85,3123.48,2632.15,2997.39,2690.85z M3057.28,2281.65
			c-1.2-219.3-206.5-230.2-297-230.2h-411l-4.3,456.7l402.8,0.6C2838.28,2508.75,3058.58,2508.15,3057.28,2281.65L3057.28,2281.65z"
			/>
		<path id="path6" d="M4217.28,3060.55c89.3,0.5,169.7-22.4,247.9-60.9c72.9-35.9,124-82.6,182.7-150l134.8,137
			c-45.4,47.5-210.6,274.9-561,276.2c-613.2,2.2-730.7-519.7-730.7-693.7c0-210.7,65.6-394,205.4-536.5
			c139.8-142.5,316.1-198.5,525.3-198.5c243.6,0,450.1,134.8,550.5,269.6l-137.3,137c-54.4-80.5-206.6-203.6-426.2-206.6
			c-158.7-2.2-501.2,106.5-495.8,539.3C3714.18,2685.65,3804.18,3058.35,4217.28,3060.55z"/>
	</g>
	<g id="intel_lettering" transform="matrix(0.46147483,0,0,0.46147483,-2.768849,-10.789282)">
		<rect id="rect4_2_" x="572.69" y="642.15" width="160.9" height="161.1"/>
		<path id="path6_2_" d="M728.69,1476.75v-577.3h-151.2v577.3H728.69z M1734.69,1481.55v-141.1c-22.3,0-41.2-1.1-54.9-3.4
			c-16-2.3-28-8-36.1-16c-8-8-13.2-19.4-16-34.2c-2.3-14.2-3.4-33-3.4-55.8v-201.7h110.4v-129.9h-110.4v-226h-151.2v558.3
			c0,47.3,4,87.2,11.9,119.2c8,31.4,21.6,57,40.4,76.4c18.8,19.4,43.8,33.1,74,41.6c30.7,8.5,69.4,12.5,115.5,12.5h19.8V1481.55z
			 M2603.78,1476.75v-846.6h-151.2v846.6H2603.78z M1325.79,957.15c-42-45.6-101.2-68.4-176.3-68.4c-36.4,0-69.4,7.4-99.5,22.2
			c-29.6,14.8-55.2,35.3-75.1,61.5l-8.5,10.8v-11.2v-72.7h-148.8v574.8h151.2v-305v21.1v-10.3c1.1-54.1,14.1-94,39.2-119.6
			c26.7-27.3,59.1-41,96.1-41c43.8,0,77.3,13.7,99.5,39.9c21.6,26.2,33,63.2,34.1,110.5l0,0v1.1l0,0l0,0v305.9h151.2v-327
			C1389.49,1067.65,1367.89,1002.75,1325.79,957.15z M2373.29,1186.95c0-41.6-7.4-80.3-21.6-116.8c-14.8-35.9-35.3-67.8-60.8-95.1
			c-26.2-27.3-57.4-48.4-93.8-63.8c-36.4-15.4-76.8-22.8-120.6-22.8c-41.5,0-80.7,8-117.1,23.4c-36.4,16-68.2,37-95,63.8
			c-26.7,26.8-48.3,58.7-63.7,95.1c-15.9,36.5-23.3,75.8-23.3,117.4s7.4,80.9,22.2,117.4c14.8,36.5,35.8,68.4,62,95.1
			c26.2,26.8,58.6,48.4,96.1,63.8c37.5,16,79,23.9,123.4,23.9c128.5,0,208.1-58.7,255.9-113.4l-109.3-83.2
			c-22.7,27.3-77.3,64.4-145.6,64.4c-42.6,0-77.9-9.7-104.6-29.6c-26.7-19.4-44.9-46.7-54.6-80.3l-1.7-5.1h452.1V1186.95z
			 M1921.79,1133.35c0-42.2,48.3-115.6,152.4-116.2c104.1,0,153,73.5,153,115.6L1921.79,1133.35z"/>
	</g>
</g>
</svg>
